<svg xmlns="http://www.w3.org/2000/svg" width="48" height="56" viewBox="0 0 48 56">
  <defs>
    <linearGradient id="hull" x1="0" y1="0" x2="1" y2="1">
      <stop offset="0" stop-color="#ecfeff"/><stop offset="0.38" stop-color="#5eead4"/><stop offset="1" stop-color="#0284c7"/>
    </linearGradient>
    <linearGradient id="wing" x1="0" y1="0" x2="0" y2="1">
      <stop stop-color="#38bdf8"/><stop offset="1" stop-color="#075985"/>
    </linearGradient>
    <linearGradient id="flame" x1="0" y1="0" x2="0" y2="1">
      <stop stop-color="#dbeafe"/><stop offset="0.35" stop-color="#fbbf24"/><stop offset="1" stop-color="#f97316" stop-opacity="0"/>
    </linearGradient>
  </defs>
  <path d="M22 17 7 28 2 43l18-6 4 12 4-12 18 6-5-15-15-11Z" fill="url(#wing)" stroke="#7dd3fc" stroke-width="1.3"/>
  <path d="M24 2c-5 7-7 17-6 29l3 17h6l3-17C31 19 29 9 24 2Z" fill="url(#hull)" stroke="#cffafe" stroke-width="1.2"/>
  <path d="m18 27-8 8 10-2m10-6 8 8-10-2" fill="none" stroke="#bae6fd" stroke-width="1.4" stroke-linecap="round"/>
  <path d="M24 10c-3 3-4 7-4 12h8c0-5-1-9-4-12Z" fill="#0f172a" stroke="#a5f3fc"/>
  <path d="M22 39h4v10h-4z" fill="#e0f2fe"/>
  <circle cx="8" cy="37" r="2.2" fill="#fbbf24"/><circle cx="40" cy="37" r="2.2" fill="#fbbf24"/>
  <path d="M20 49h3l1 7 1-7h3l-2 7h-4Z" fill="url(#flame)"/>
</svg>
